<?xml version="1.0" encoding="UTF-8" standalone="no"?>
<!-- Created with Inkscape (http://www.inkscape.org/) -->

<svg
   width="1280"
   height="256"
   viewBox="0 0 338.66665 67.733333"
   version="1.1"
   id="svg1"
   inkscape:version="1.3.2 (091e20ef0f, 2023-11-25)"
   sodipodi:docname="heart.svg"
   inkscape:export-filename="heart.png"
   inkscape:export-xdpi="96"
   inkscape:export-ydpi="96"
   xmlns:inkscape="http://www.inkscape.org/namespaces/inkscape"
   xmlns:sodipodi="http://sodipodi.sourceforge.net/DTD/sodipodi-0.dtd"
   xmlns="http://www.w3.org/2000/svg"
   xmlns:svg="http://www.w3.org/2000/svg">
  <sodipodi:namedview
     id="namedview1"
     pagecolor="#ffffff"
     bordercolor="#000000"
     borderopacity="0.25"
     inkscape:showpageshadow="2"
     inkscape:pageopacity="0.0"
     inkscape:pagecheckerboard="false"
     inkscape:deskcolor="#d1d1d1"
     inkscape:document-units="mm"
     inkscape:zoom="1"
     inkscape:cx="591.99999"
     inkscape:cy="406.99999"
     inkscape:window-width="1920"
     inkscape:window-height="1008"
     inkscape:window-x="0"
     inkscape:window-y="0"
     inkscape:window-maximized="1"
     inkscape:current-layer="layer1"
     showguides="true">
    <sodipodi:guide
       position="67.733333,67.733333"
       orientation="1,0"
       id="guide1"
       inkscape:locked="false" />
    <sodipodi:guide
       position="135.46667,67.733331"
       orientation="1,0"
       id="guide2"
       inkscape:locked="false" />
  </sodipodi:namedview>
  <defs
     id="defs1" />
  <g
     inkscape:groupmode="layer"
     id="layer2"
     inkscape:label="Layer 2"
     sodipodi:insensitive="true"
     style="display:none">
    <rect
       style="fill:#4d4d4d;stroke:none;stroke-width:6.00001;stroke-dasharray:none;stroke-opacity:1"
       id="rect2"
       width="67.73333"
       height="67.73333"
       x="0"
       y="0" />
  </g>
  <g
     inkscape:label="Layer 1"
     inkscape:groupmode="layer"
     id="layer1">
    <g
       id="g7">
      <path
         id="path2"
         style="fill:#333333;stroke:#320000;stroke-width:10.624;stroke-linecap:butt;stroke-linejoin:round;stroke-dasharray:none;stroke-opacity:1"
         d="M 11.400166,12.842431 C -3.0279589,30.131126 22.949805,46.79763 33.805723,57.653547 44.030392,46.354654 71.120038,30.368312 56.211287,12.842431 c -6.187122,-6.1871348 -16.218442,-6.1871348 -22.405564,0 -6.18712,-6.1871312 -16.218437,-6.1871312 -22.405557,0 z"
         sodipodi:nodetypes="ccccc" />
      <path
         id="path1"
         style="fill:#ff2637;fill-opacity:1;stroke:#ffffff;stroke-width:3.355;stroke-linejoin:round;stroke-dasharray:none;stroke-opacity:1"
         d="M 11.399798,13.364015 C -3.0283266,30.65271 22.949438,47.319214 33.805356,58.175131 44.030025,46.876238 71.119671,30.889896 56.21092,13.364015 c -6.187122,-6.1871351 -16.218442,-6.1871351 -22.405564,0 -6.18712,-6.1871315 -16.218437,-6.1871315 -22.405558,0 z"
         sodipodi:nodetypes="ccccc" />
      <ellipse
         style="fill:#ffaaaa;stroke:none;stroke-width:3.71472;stroke-linecap:butt;stroke-linejoin:bevel;stroke-dasharray:none;stroke-opacity:1"
         id="path13"
         cx="22.051626"
         cy="18.215942"
         rx="7.3357277"
         ry="5.9794798" />
      <path
         style="fill:#800000;stroke:none;stroke-width:5.427;stroke-linecap:round;stroke-linejoin:round;stroke-dasharray:none;stroke-opacity:1"
         d="M 33.380942,55.355985 C 26.035682,48.442432 17.720888,42.295142 12.116089,33.767575 9.2497084,29.452042 7.4858406,23.769185 9.7863737,18.815408 c 1.5086223,-3.913527 4.9004853,-6.98829 8.9820513,-7.993655 4.761874,-1.3105588 10.032907,0.225378 13.549519,3.635734 2.210436,1.880342 3.901113,-1.256799 5.751376,-2.112469 5.994143,-3.7408498 14.898936,-2.031911 18.575198,4.165065 2.738871,3.773038 3.040981,8.908502 1.094378,13.094719 -3.633495,8.059289 -10.711144,13.727694 -17.035316,19.605956 -2.380589,2.092097 -4.674517,4.280897 -6.996171,6.435377 z m 6.023166,-9.606174 c 3.506643,-3.655364 5.049417,-6.326777 9.104483,-11.574552 1.651795,-2.85773 4.132367,-7.291599 3.631522,-10.681737 -0.403619,-3.256576 -1.867903,-6.896634 -4.565191,-8.352735 -2.311725,-1.136067 -5.079009,-0.959672 -7.570532,-0.62695 -2.558832,0.361979 -4.53122,2.707261 -7.20041,2.445776 -2.373012,-0.85707 -4.449811,-2.377438 -6.398373,-3.951138 -4.676467,-2.911333 -11.01928,-0.396507 -13.867298,3.936189 -1.482763,2.569224 -1.525613,5.702499 -1.46291,8.595525 0.413107,4.716218 4.036165,8.206139 6.848332,11.699914 3.554611,4.298826 7.809628,6.849617 11.984831,10.515317 3.994488,4.176731 6.013484,1.200828 9.495546,-2.005609 z"
         id="path15"
         sodipodi:nodetypes="ccccccccccccccccccccccc" />
      <rect
         style="fill:none;stroke:none;stroke-width:5.427;stroke-linecap:round;stroke-linejoin:round"
         id="rect5"
         width="67.73333"
         height="67.73333"
         x="0"
         y="0" />
    </g>
    <path
       id="path7"
       style="fill:#333333;stroke:#320000;stroke-width:10.624;stroke-linecap:butt;stroke-linejoin:round;stroke-dasharray:none;stroke-opacity:1"
       d="m 282.33349,12.842431 c -14.42812,17.288695 11.54964,33.955199 22.40556,44.811116 10.22467,-11.298893 37.31431,-27.285235 22.40556,-44.811116 -6.18712,-6.1871348 -16.21844,-6.1871348 -22.40556,0 -6.18712,-6.1871312 -16.21844,-6.1871312 -22.40556,0 z"
       sodipodi:nodetypes="ccccc" />
    <path
       id="path8"
       style="fill:#483737;fill-opacity:1;stroke:#ffffff;stroke-width:3.355;stroke-linejoin:round;stroke-dasharray:none;stroke-opacity:1"
       d="M 282.33312,13.364015 C 267.905,30.65271 293.88276,47.319214 304.73868,58.175131 314.96335,46.876238 342.053,30.889896 327.14425,13.364015 c -6.18712,-6.1871351 -16.21844,-6.1871351 -22.40557,0 -6.18712,-6.1871315 -16.21843,-6.1871315 -22.40556,0 z"
       sodipodi:nodetypes="ccccc" />
    <rect
       style="fill:none;stroke:none;stroke-width:5.427;stroke-linecap:round;stroke-linejoin:round"
       id="rect9"
       width="67.73333"
       height="67.73333"
       x="270.93332"
       y="0" />
    <g
       id="g6"
       transform="translate(135.46667)">
      <path
         id="path3"
         style="fill:#333333;stroke:#320000;stroke-width:10.624;stroke-linecap:butt;stroke-linejoin:round;stroke-dasharray:none;stroke-opacity:1"
         d="M 11.400166,12.842431 C -3.0279589,30.131126 22.949805,46.79763 33.805723,57.653547 44.030392,46.354654 71.120038,30.368312 56.211287,12.842431 c -6.187122,-6.1871348 -16.218442,-6.1871348 -22.405564,0 -6.18712,-6.1871312 -16.218437,-6.1871312 -22.405557,0 z"
         sodipodi:nodetypes="ccccc" />
      <path
         id="path4"
         style="fill:#ff2637;fill-opacity:1;stroke:#ffffff;stroke-width:3.355;stroke-linejoin:round;stroke-dasharray:none;stroke-opacity:1"
         d="M 11.399798,13.364015 C -3.0283266,30.65271 22.949438,47.319214 33.805356,58.175131 44.030025,46.876238 71.119671,30.889896 56.21092,13.364015 c -6.187122,-6.1871351 -16.218442,-6.1871351 -22.405564,0 -6.18712,-6.1871315 -16.218437,-6.1871315 -22.405558,0 z"
         sodipodi:nodetypes="ccccc" />
      <ellipse
         style="fill:#ffaaaa;stroke:none;stroke-width:3.71472;stroke-linecap:butt;stroke-linejoin:bevel;stroke-dasharray:none;stroke-opacity:1"
         id="ellipse4"
         cx="22.051626"
         cy="18.215942"
         rx="7.3357277"
         ry="5.9794798" />
      <path
         style="fill:#800000;stroke:none;stroke-width:5.427;stroke-linecap:round;stroke-linejoin:round;stroke-dasharray:none;stroke-opacity:1"
         d="M 33.380942,55.355985 C 26.035682,48.442432 17.720888,42.295142 12.116089,33.767575 9.2497084,29.452042 7.4858406,23.769185 9.7863737,18.815408 c 1.5086223,-3.913527 4.9004853,-6.98829 8.9820513,-7.993655 4.761874,-1.3105588 10.032907,0.225378 13.549519,3.635734 2.210436,1.880342 3.901113,-1.256799 5.751376,-2.112469 5.994143,-3.7408498 14.898936,-2.031911 18.575198,4.165065 2.738871,3.773038 3.040981,8.908502 1.094378,13.094719 -3.633495,8.059289 -10.711144,13.727694 -17.035316,19.605956 -2.380589,2.092097 -4.674517,4.280897 -6.996171,6.435377 z m 6.023166,-9.606174 c 3.506643,-3.655364 5.049417,-6.326777 9.104483,-11.574552 1.651795,-2.85773 4.132367,-7.291599 3.631522,-10.681737 -0.403619,-3.256576 -1.867903,-6.896634 -4.565191,-8.352735 -2.311725,-1.136067 -5.079009,-0.959672 -7.570532,-0.62695 -2.558832,0.361979 -4.53122,2.707261 -7.20041,2.445776 -2.373012,-0.85707 -4.449811,-2.377438 -6.398373,-3.951138 -4.676467,-2.911333 -11.01928,-0.396507 -13.867298,3.936189 -1.482763,2.569224 -1.525613,5.702499 -1.46291,8.595525 0.413107,4.716218 4.036165,8.206139 6.848332,11.699914 3.554611,4.298826 7.809628,6.849617 11.984831,10.515317 3.994488,4.176731 6.013484,1.200828 9.495546,-2.005609 z"
         id="path5"
         sodipodi:nodetypes="ccccccccccccccccccccccc" />
      <rect
         style="fill:none;stroke:none;stroke-width:5.427;stroke-linecap:round;stroke-linejoin:round"
         id="rect6"
         width="67.73333"
         height="67.73333"
         x="0"
         y="0" />
    </g>
    <g
       id="g10"
       transform="translate(203.2)">
      <path
         id="path6"
         style="fill:#333333;stroke:#320000;stroke-width:10.624;stroke-linecap:butt;stroke-linejoin:round;stroke-dasharray:none;stroke-opacity:1"
         d="M 11.400166,12.842431 C -3.0279589,30.131126 22.949805,46.79763 33.805723,57.653547 44.030392,46.354654 71.120038,30.368312 56.211287,12.842431 c -6.187122,-6.1871348 -16.218442,-6.1871348 -22.405564,0 -6.18712,-6.1871312 -16.218437,-6.1871312 -22.405557,0 z"
         sodipodi:nodetypes="ccccc" />
      <path
         id="path9"
         style="fill:#ff2637;fill-opacity:1;stroke:#ffffff;stroke-width:3.355;stroke-linejoin:round;stroke-dasharray:none;stroke-opacity:1"
         d="M 11.399798,13.364015 C -3.0283266,30.65271 22.949438,47.319214 33.805356,58.175131 44.030025,46.876238 71.119671,30.889896 56.21092,13.364015 c -6.187122,-6.1871351 -16.218442,-6.1871351 -22.405564,0 -6.18712,-6.1871315 -16.218437,-6.1871315 -22.405558,0 z"
         sodipodi:nodetypes="ccccc" />
      <ellipse
         style="fill:#ffaaaa;stroke:none;stroke-width:3.71472;stroke-linecap:butt;stroke-linejoin:bevel;stroke-dasharray:none;stroke-opacity:1"
         id="ellipse9"
         cx="22.051626"
         cy="18.215942"
         rx="7.3357277"
         ry="5.9794798" />
      <path
         style="fill:#800000;stroke:none;stroke-width:5.427;stroke-linecap:round;stroke-linejoin:round;stroke-dasharray:none;stroke-opacity:1"
         d="M 33.380942,55.355985 C 26.035682,48.442432 17.720888,42.295142 12.116089,33.767575 9.2497084,29.452042 7.4858406,23.769185 9.7863737,18.815408 c 1.5086223,-3.913527 4.9004853,-6.98829 8.9820513,-7.993655 4.761874,-1.3105588 10.032907,0.225378 13.549519,3.635734 2.210436,1.880342 3.901113,-1.256799 5.751376,-2.112469 5.994143,-3.7408498 14.898936,-2.031911 18.575198,4.165065 2.738871,3.773038 3.040981,8.908502 1.094378,13.094719 -3.633495,8.059289 -10.711144,13.727694 -17.035316,19.605956 -2.380589,2.092097 -4.674517,4.280897 -6.996171,6.435377 z m 6.023166,-9.606174 c 3.506643,-3.655364 5.049417,-6.326777 9.104483,-11.574552 1.651795,-2.85773 4.132367,-7.291599 3.631522,-10.681737 -0.403619,-3.256576 -1.867903,-6.896634 -4.565191,-8.352735 -2.311725,-1.136067 -5.079009,-0.959672 -7.570532,-0.62695 -2.558832,0.361979 -4.53122,2.707261 -7.20041,2.445776 -2.373012,-0.85707 -4.449811,-2.377438 -6.398373,-3.951138 -4.676467,-2.911333 -11.01928,-0.396507 -13.867298,3.936189 -1.482763,2.569224 -1.525613,5.702499 -1.46291,8.595525 0.413107,4.716218 4.036165,8.206139 6.848332,11.699914 3.554611,4.298826 7.809628,6.849617 11.984831,10.515317 3.994488,4.176731 6.013484,1.200828 9.495546,-2.005609 z"
         id="path10"
         sodipodi:nodetypes="ccccccccccccccccccccccc" />
      <rect
         style="fill:none;stroke:none;stroke-width:5.427;stroke-linecap:round;stroke-linejoin:round"
         id="rect10"
         width="67.73333"
         height="67.73333"
         x="0"
         y="0" />
    </g>
    <path
       id="path11"
       style="fill:#333333;stroke:#320000;stroke-width:10.624;stroke-linecap:butt;stroke-linejoin:round;stroke-dasharray:none;stroke-opacity:1"
       d="m 79.133496,113.63834 c -14.428125,17.2887 11.549639,33.9552 22.405554,44.81112 10.22467,-11.29889 37.31432,-27.28524 22.40557,-44.81112 -6.18713,-6.18713 -16.21845,-6.18713 -22.40557,0 -6.187117,-6.18713 -16.218434,-6.18713 -22.405554,0 z"
       sodipodi:nodetypes="ccccc" />
    <path
       id="path12"
       style="fill:#ff2637;fill-opacity:1;stroke:#ffffff;stroke-width:3.355;stroke-linejoin:round;stroke-dasharray:none;stroke-opacity:1"
       d="m 79.133128,114.15993 c -14.428125,17.28869 11.54964,33.9552 22.405562,44.81111 10.22466,-11.29889 37.31431,-27.28523 22.40556,-44.81111 -6.18712,-6.18714 -16.21844,-6.18714 -22.40556,0 -6.187124,-6.18713 -16.218441,-6.18713 -22.405562,0 z"
       sodipodi:nodetypes="ccccc" />
    <rect
       style="fill:none;stroke:none;stroke-width:5.427;stroke-linecap:round;stroke-linejoin:round"
       id="rect14"
       width="67.73333"
       height="67.73333"
       x="67.73333"
       y="100.79591" />
    <path
       id="path21"
       style="fill:#483737;fill-opacity:1;stroke:#ffffff;stroke-width:2.5;stroke-linejoin:round;stroke-dasharray:none;stroke-opacity:1"
       d="M 282.33312,13.364015 C 267.905,30.65271 293.88276,47.319214 304.73868,58.175131 314.96335,46.876238 342.053,30.889896 327.14425,13.364015 c -6.18712,-6.1871351 -16.21844,-6.1871351 -22.40557,0 -6.18712,-6.1871315 -16.21843,-6.1871315 -22.40556,0 z"
       sodipodi:nodetypes="ccccc" />
    <path
       id="path20"
       style="fill:#483737;stroke:#000000;stroke-width:0.1;stroke-linecap:square;stroke-linejoin:bevel;stroke-dasharray:none;stroke-opacity:1"
       d="m 144.62604,132.29482 h -86.0521 m 43.02605,44.91606 V 91.158775" />
    <path
       style="fill:#483737;stroke:none;stroke-width:0.188976;stroke-linecap:square;stroke-linejoin:bevel;stroke-dasharray:none;stroke-opacity:1;fill-opacity:1"
       d="M 384.49999,468.80695 V 438.1084 l 1.27023,-0.31881 c 0.69862,-0.17534 2.55487,-1.49407 4.125,-2.93051 18.53044,-16.95269 45.31928,-19.01983 66.06915,-5.09818 4.9055,3.29124 8.86757,7.33578 12.4871,12.74703 3.91961,5.85988 5.68678,9.35105 7.53244,14.8808 3.86729,11.58677 3.03671,23.37901 -2.5856,36.70911 l -2.17304,5.15215 -43.36264,0.12776 -43.36264,0.12776 z"
       id="path39"
       transform="scale(0.26458333)" />
    <path
       style="fill:#483737;stroke:none;stroke-width:0.188976;stroke-linecap:square;stroke-linejoin:bevel;stroke-dasharray:none;stroke-opacity:1;fill-opacity:1"
       d="m 384.49999,545.34807 v -44.84808 h 42.75 c 23.5125,0 42.75,0.18773 42.75,0.41718 0,0.83519 -5.38253,9.25392 -9.14113,14.29748 -9.3681,12.57082 -24.20479,27.68315 -49.10887,50.02123 -8.25,7.39996 -16.91274,15.26789 -19.25054,17.48429 -2.3378,2.21639 -5.09405,4.8052 -6.125,5.7529 l -1.87446,1.72308 z"
       id="path40"
       transform="scale(0.26458333)" />
    <path
       style="fill:#483737;stroke:none;stroke-width:0.188976;stroke-linecap:square;stroke-linejoin:bevel;stroke-dasharray:none;stroke-opacity:1;fill-opacity:1"
       d="m 379.23583,587.37498 c -2.19251,-1.99375 -11.07376,-9.91044 -19.73611,-17.59264 -24.94599,-22.12336 -43.51228,-41.16105 -52.8561,-54.19815 -2.98704,-4.16772 -9.14363,-14.11043 -9.14363,-14.76671 0,-0.17462 19.35,-0.31749 43,-0.31749 h 43 v 45.25 c 0,24.88749 -0.0625,45.24999 -0.13889,45.24999 -0.0764,0 -1.93276,-1.63125 -4.12527,-3.625 z"
       id="path41"
       transform="scale(0.26458333)" />
    <path
       style="fill:#483737;stroke:none;stroke-width:0.188976;stroke-linecap:square;stroke-linejoin:bevel;stroke-dasharray:none;stroke-opacity:1;fill-opacity:1"
       d="m 294.60112,494.62499 c -6.43922,-15.51933 -6.56817,-30.0222 -0.38593,-43.40287 2.41568,-5.22842 7.66055,-13.02144 10.89592,-16.18956 5.85937,-5.73759 14.62902,-10.59179 23.28598,-12.88933 4.18625,-1.11102 5.91754,-1.29153 12.6029,-1.31397 8.67314,-0.0291 12.08408,0.55584 19.51375,3.34653 5.78853,2.17426 11.27538,5.51617 16.24435,9.89403 2.18596,1.92593 4.59714,3.62622 5.35818,3.77843 l 1.38372,0.27674 v 30.6875 30.6875 h -43.43808 -43.43807 z"
       id="path42"
       transform="scale(0.26458333)" />
    <g
       id="g45"
       transform="translate(67.733335)">
      <path
         id="path43"
         style="fill:#333333;stroke:#320000;stroke-width:10.624;stroke-linecap:butt;stroke-linejoin:round;stroke-dasharray:none;stroke-opacity:1"
         d="M 11.400166,12.842431 C -3.0279589,30.131126 22.949805,46.79763 33.805723,57.653547 44.030392,46.354654 71.120038,30.368312 56.211287,12.842431 c -6.187122,-6.1871348 -16.218442,-6.1871348 -22.405564,0 -6.18712,-6.1871312 -16.218437,-6.1871312 -22.405557,0 z"
         sodipodi:nodetypes="ccccc" />
      <path
         id="path44"
         style="fill:#ff2637;fill-opacity:1;stroke:#ffffff;stroke-width:3.355;stroke-linejoin:round;stroke-dasharray:none;stroke-opacity:1"
         d="M 11.399798,13.364015 C -3.0283266,30.65271 22.949438,47.319214 33.805356,58.175131 44.030025,46.876238 71.119671,30.889896 56.21092,13.364015 c -6.187122,-6.1871351 -16.218442,-6.1871351 -22.405564,0 -6.18712,-6.1871315 -16.218437,-6.1871315 -22.405558,0 z"
         sodipodi:nodetypes="ccccc" />
      <ellipse
         style="fill:#ffaaaa;stroke:none;stroke-width:3.71472;stroke-linecap:butt;stroke-linejoin:bevel;stroke-dasharray:none;stroke-opacity:1"
         id="ellipse44"
         cx="22.051626"
         cy="18.215942"
         rx="7.3357277"
         ry="5.9794798" />
      <path
         style="fill:#800000;stroke:none;stroke-width:5.427;stroke-linecap:round;stroke-linejoin:round;stroke-dasharray:none;stroke-opacity:1"
         d="M 33.380942,55.355985 C 26.035682,48.442432 17.720888,42.295142 12.116089,33.767575 9.2497084,29.452042 7.4858406,23.769185 9.7863737,18.815408 c 1.5086223,-3.913527 4.9004853,-6.98829 8.9820513,-7.993655 4.761874,-1.3105588 10.032907,0.225378 13.549519,3.635734 2.210436,1.880342 3.901113,-1.256799 5.751376,-2.112469 5.994143,-3.7408498 14.898936,-2.031911 18.575198,4.165065 2.738871,3.773038 3.040981,8.908502 1.094378,13.094719 -3.633495,8.059289 -10.711144,13.727694 -17.035316,19.605956 -2.380589,2.092097 -4.674517,4.280897 -6.996171,6.435377 z m 6.023166,-9.606174 c 3.506643,-3.655364 5.049417,-6.326777 9.104483,-11.574552 1.651795,-2.85773 4.132367,-7.291599 3.631522,-10.681737 -0.403619,-3.256576 -1.867903,-6.896634 -4.565191,-8.352735 -2.311725,-1.136067 -5.079009,-0.959672 -7.570532,-0.62695 -2.558832,0.361979 -4.53122,2.707261 -7.20041,2.445776 -2.373012,-0.85707 -4.449811,-2.377438 -6.398373,-3.951138 -4.676467,-2.911333 -11.01928,-0.396507 -13.867298,3.936189 -1.482763,2.569224 -1.525613,5.702499 -1.46291,8.595525 0.413107,4.716218 4.036165,8.206139 6.848332,11.699914 3.554611,4.298826 7.809628,6.849617 11.984831,10.515317 3.994488,4.176731 6.013484,1.200828 9.495546,-2.005609 z"
         id="path45"
         sodipodi:nodetypes="ccccccccccccccccccccccc" />
      <rect
         style="fill:none;stroke:none;stroke-width:5.427;stroke-linecap:round;stroke-linejoin:round"
         id="rect45"
         width="67.73333"
         height="67.73333"
         x="0"
         y="0" />
    </g>
    <path
       style="fill:#483737;fill-opacity:1;stroke:none;stroke-width:0.0499999;stroke-linecap:square;stroke-linejoin:bevel;stroke-dasharray:none;stroke-opacity:1"
       d="m 101.73229,23.242592 v -8.122325 l 0.33608,-0.08435 c 0.18484,-0.04639 0.67598,-0.395306 1.09141,-0.775364 4.90284,-4.4853991 11.99072,-5.0323299 17.48079,-1.348893 1.29791,0.870807 2.34621,1.940925 3.30388,3.372651 1.03706,1.550427 1.50463,2.474132 1.99296,3.937212 1.02322,3.065666 0.80346,6.185696 -0.68411,9.712618 l -0.57495,1.363173 -11.47303,0.0338 -11.47303,0.0338 z"
       id="path47" />
    <path
       id="path52"
       style="fill:#483737;fill-opacity:1;stroke:none;stroke-width:0.0499999;stroke-linecap:square;stroke-linejoin:bevel;stroke-dasharray:none;stroke-opacity:1"
       d="m 180.69956,10.482048 c -3.46729,-0.02123 -6.9165,1.255546 -9.67434,3.77858 -0.41543,0.380058 -0.90657,0.728757 -1.09141,0.775147 l -0.33589,0.08475 v 8.121985 8.122502 l 22.94588,-0.0677 0.57516,-1.363224 c 1.48757,-3.526918 1.7069,-6.646922 0.68368,-9.712585 -0.48833,-1.463079 -0.95558,-2.386802 -1.99264,-3.937228 -0.95767,-1.431724 -2.00628,-2.501597 -3.30419,-3.372404 -2.40191,-1.611502 -5.10946,-2.413316 -7.80625,-2.429825 z m -11.10164,20.882963 v 12.128975 11.865942 l 0.49557,-0.455786 c 0.27277,-0.250745 1.00204,-0.935452 1.62058,-1.521871 0.61854,-0.586422 2.91093,-2.66817 5.09374,-4.626074 6.58921,-5.910278 10.51437,-9.908824 12.99301,-13.234851 0.99446,-1.334441 2.45786,-3.459544 2.74298,-4.224032 -6.71209,-0.550159 -15.14941,-0.560908 -22.94588,0.0677 z"
       sodipodi:nodetypes="csccccccssssccccsssscsc" />
    <path
       id="path57"
       style="fill:#483737;fill-opacity:1;stroke:none;stroke-width:0.0499999;stroke-linecap:square;stroke-linejoin:bevel;stroke-dasharray:none;stroke-opacity:1"
       d="m 248.4329,10.482048 c -3.4673,-0.02123 -6.9165,1.255546 -9.67435,3.77858 -0.41543,0.380058 -0.90656,0.728757 -1.0914,0.775147 l -0.3359,0.08475 v 8.121985 8.385535 c 7.64641,-0.303066 14.97129,0.132985 22.62187,0.110586 l 0.89917,-1.80454 c 1.48757,-3.526918 1.7069,-6.646922 0.68368,-9.712585 -0.48833,-1.463079 -0.95558,-2.386802 -1.99264,-3.937228 -0.95767,-1.431724 -2.00628,-2.501597 -3.30419,-3.372404 -2.4019,-1.611502 -5.10945,-2.413316 -7.80624,-2.429825 z m -22.74332,21.145996 c -6.25739,0 -11.37708,0.03803 -11.37708,0.08423 0,0.173641 1.62865,2.804031 2.41897,3.906738 2.47222,3.449397 7.38491,8.486744 13.9852,14.34021 2.2919,2.032581 4.64127,4.126984 5.22138,4.654497 0.5801,0.527512 1.07173,0.959114 1.09193,0.959114 -0.0571,-7.984167 0.1249,-15.963444 0.30128,-23.944791 z m 11.64167,0 c -2.99181,8.875895 -0.1022,15.963606 -0.30127,23.944791 l 0.79685,-0.668693 c 0.27277,-0.250745 1.00203,-0.935452 1.62057,-1.521871 0.61854,-0.586422 2.91094,-2.66817 5.09375,-4.626074 6.5892,-5.910278 10.51436,-9.908824 12.993,-13.234851 0.99446,-1.334441 2.41897,-3.561737 2.41897,-3.782715 -7.5367,-0.17366 -14.51715,-0.918186 -22.62187,-0.110587 z"
       sodipodi:nodetypes="ssccccccssssscsssssccccsssssc" />
    <path
       sodipodi:type="star"
       style="fill:#ffff00;stroke-width:0.1;stroke-linecap:round;stroke-linejoin:round"
       id="path14"
       inkscape:flatsided="false"
       sodipodi:sides="5"
       sodipodi:cx="236.82895"
       sodipodi:cy="149.78517"
       sodipodi:r1="42.601082"
       sodipodi:r2="19.74942"
       sodipodi:arg1="-1.5707963"
       sodipodi:arg2="-1.1981037"
       inkscape:rounded="0"
       inkscape:randomized="0"
       d="m 236.82895,107.18409 7.19125,24.20745 33.32479,5.22917 -20.80044,14.3198 5.32469,33.30966 -20.04663,-15.35733 -30.03395,15.35733 8.41094,-23.81115 -23.88669,-23.81831 25.24488,0.64123 z"
       inkscape:transform-center-x="8.3650218e-06"
       inkscape:transform-center-y="-0.69331988"
       transform="matrix(0.20897075,0,0,0.20897075,155.28925,84.78575)"
       inkscape:export-filename="./star.png"
       inkscape:export-xdpi="96"
       inkscape:export-ydpi="96" />
  </g>
</svg>
