<?xml version="1.0" encoding="UTF-8" standalone="no"?>
<!-- Created with Inkscape (http://www.inkscape.org/) -->

<svg
   width="256"
   height="256"
   viewBox="0 0 67.733332 67.733333"
   version="1.1"
   id="svg1"
   inkscape:version="1.3.2 (091e20ef0f, 2023-11-25)"
   sodipodi:docname="heart.svg"
   inkscape:export-filename="heart.png"
   inkscape:export-xdpi="96"
   inkscape:export-ydpi="96"
   xmlns:inkscape="http://www.inkscape.org/namespaces/inkscape"
   xmlns:sodipodi="http://sodipodi.sourceforge.net/DTD/sodipodi-0.dtd"
   xmlns="http://www.w3.org/2000/svg"
   xmlns:svg="http://www.w3.org/2000/svg">
  <sodipodi:namedview
     id="namedview1"
     pagecolor="#ffffff"
     bordercolor="#000000"
     borderopacity="0.25"
     inkscape:showpageshadow="2"
     inkscape:pageopacity="0.0"
     inkscape:pagecheckerboard="false"
     inkscape:deskcolor="#d1d1d1"
     inkscape:document-units="mm"
     inkscape:zoom="2"
     inkscape:cx="176.5"
     inkscape:cy="105.5"
     inkscape:window-width="1920"
     inkscape:window-height="1008"
     inkscape:window-x="0"
     inkscape:window-y="0"
     inkscape:window-maximized="1"
     inkscape:current-layer="layer1" />
  <defs
     id="defs1" />
  <g
     inkscape:groupmode="layer"
     id="layer2"
     inkscape:label="Layer 2"
     sodipodi:insensitive="true"
     style="display:none">
    <rect
       style="fill:#4d4d4d;stroke:none;stroke-width:6.00001;stroke-dasharray:none;stroke-opacity:1"
       id="rect2"
       width="67.73333"
       height="67.73333"
       x="0"
       y="0" />
  </g>
  <g
     inkscape:label="Layer 1"
     inkscape:groupmode="layer"
     id="layer1">
    <path
       id="path2"
       style="fill:#333333;stroke:#320000;stroke-width:10.624;stroke-linecap:butt;stroke-linejoin:round;stroke-dasharray:none;stroke-opacity:1"
       d="M 11.400166,12.842431 C -3.0279589,30.131126 22.949805,46.79763 33.805723,57.653547 44.030392,46.354654 71.120038,30.368312 56.211287,12.842431 c -6.187122,-6.1871348 -16.218442,-6.1871348 -22.405564,0 -6.18712,-6.1871312 -16.218437,-6.1871312 -22.405557,0 z"
       sodipodi:nodetypes="ccccc" />
    <path
       id="path1"
       style="fill:#ff2637;stroke:#ffffff;stroke-width:3.355;stroke-linejoin:round;stroke-dasharray:none;stroke-opacity:1;fill-opacity:1"
       d="M 11.399798,13.364015 C -3.0283266,30.65271 22.949438,47.319214 33.805356,58.175131 44.030025,46.876238 71.119671,30.889896 56.21092,13.364015 c -6.187122,-6.1871351 -16.218442,-6.1871351 -22.405564,0 -6.18712,-6.1871315 -16.218437,-6.1871315 -22.405558,0 z"
       sodipodi:nodetypes="ccccc" />
    <ellipse
       style="fill:#ffaaaa;stroke:none;stroke-width:3.71472;stroke-linecap:butt;stroke-linejoin:bevel;stroke-dasharray:none;stroke-opacity:1"
       id="path13"
       cx="22.051626"
       cy="18.215942"
       rx="7.3357277"
       ry="5.9794798" />
    <path
       style="fill:#800000;stroke:none;stroke-width:5.427;stroke-linecap:round;stroke-linejoin:round;stroke-dasharray:none;stroke-opacity:1"
       d="M 33.380942,55.355985 C 26.035682,48.442432 17.720888,42.295142 12.116089,33.767575 9.2497084,29.452042 7.4858406,23.769185 9.7863737,18.815408 c 1.5086223,-3.913527 4.9004853,-6.98829 8.9820513,-7.993655 4.761874,-1.3105588 10.032907,0.225378 13.549519,3.635734 2.210436,1.880342 3.901113,-1.256799 5.751376,-2.112469 5.994143,-3.7408498 14.898936,-2.031911 18.575198,4.165065 2.738871,3.773038 3.040981,8.908502 1.094378,13.094719 -3.633495,8.059289 -10.711144,13.727694 -17.035316,19.605956 -2.380589,2.092097 -4.674517,4.280897 -6.996171,6.435377 z m 6.023166,-9.606174 c 3.506643,-3.655364 5.049417,-6.326777 9.104483,-11.574552 1.651795,-2.85773 4.132367,-7.291599 3.631522,-10.681737 -0.403619,-3.256576 -1.867903,-6.896634 -4.565191,-8.352735 -2.311725,-1.136067 -5.079009,-0.959672 -7.570532,-0.62695 -2.558832,0.361979 -4.53122,2.707261 -7.20041,2.445776 -2.373012,-0.85707 -4.449811,-2.377438 -6.398373,-3.951138 -4.676467,-2.911333 -11.01928,-0.396507 -13.867298,3.936189 -1.482763,2.569224 -1.525613,5.702499 -1.46291,8.595525 0.413107,4.716218 4.036165,8.206139 6.848332,11.699914 3.554611,4.298826 7.809628,6.849617 11.984831,10.515317 3.994488,4.176731 6.013484,1.200828 9.495546,-2.005609 z"
       id="path15"
       sodipodi:nodetypes="ccccccccccccccccccccccc" />
  </g>
</svg>
