<?xml version="1.0" encoding="UTF-8" standalone="no"?>
<!-- Created with Inkscape (http://www.inkscape.org/) -->

<svg
   width="256"
   height="64"
   viewBox="0 0 67.733333 16.933333"
   version="1.1"
   id="svg1"
   xml:space="preserve"
   inkscape:export-filename="sp.png"
   inkscape:export-xdpi="96"
   inkscape:export-ydpi="96"
   inkscape:version="1.3.2 (091e20ef0f, 2023-11-25)"
   sodipodi:docname="SUPER-JACO.svg"
   xmlns:inkscape="http://www.inkscape.org/namespaces/inkscape"
   xmlns:sodipodi="http://sodipodi.sourceforge.net/DTD/sodipodi-0.dtd"
   xmlns="http://www.w3.org/2000/svg"
   xmlns:svg="http://www.w3.org/2000/svg"><sodipodi:namedview
     id="namedview1"
     pagecolor="#ffffff"
     bordercolor="#000000"
     borderopacity="0.25"
     inkscape:showpageshadow="2"
     inkscape:pageopacity="0.0"
     inkscape:pagecheckerboard="0"
     inkscape:deskcolor="#d1d1d1"
     inkscape:document-units="mm"
     inkscape:zoom="2.0439805"
     inkscape:cx="88.552702"
     inkscape:cy="95.402082"
     inkscape:window-width="1920"
     inkscape:window-height="1008"
     inkscape:window-x="0"
     inkscape:window-y="0"
     inkscape:window-maximized="1"
     inkscape:current-layer="layer1" /><defs
     id="defs1" /><g
     inkscape:label="Layer 1"
     inkscape:groupmode="layer"
     id="layer1"><g
       id="g23"
       transform="translate(-1.3237779)"><g
         id="g24"
         transform="translate(0,-24.234837)"><g
           id="g18"
           style="fill:#1a1a1a"
           transform="translate(1.0583333,1.5875)"><path
             id="path14"
             style="font-size:9.24397px;font-family:'Super Mario 256';-inkscape-font-specification:'Super Mario 256, Normal';fill:#1a1a1a;fill-opacity:1;stroke-width:0.25;stroke-linecap:square;stroke-linejoin:bevel"
             d="m 32.013259,30.464923 1.710135,1.247936 0.157147,2.153845 -0.961373,1.072301 1.710135,1.506767 -2.005942,0.868933 -2.098381,-1.79333 0.314295,1.784086 h -2.126113 l -0.53615,-6.544731 z m -1.488279,1.913502 -0.05546,1.312644 0.563882,0.07395 0.563883,-0.813469 -1.072301,-0.573126 z" /><path
             style="font-size:9.24397px;font-family:'Super Mario 256';-inkscape-font-specification:'Super Mario 256, Normal';fill:#1a1a1a;fill-opacity:1;stroke-width:0.25;stroke-linecap:square;stroke-linejoin:bevel"
             d="m 23.379391,30.409463 h 4.529545 l -0.379002,1.913502 -2.227797,0.342027 -0.02773,0.471442 1.968966,0.147904 -0.09244,1.469791 -1.756354,0.157148 0.157147,0.499174 2.135357,0.01849 0.785738,1.83955 h -5.093428 l -0.499174,-4.418618 0.499174,-2.440408 z"
             id="path15" /><path
             id="path16"
             style="font-size:9.24397px;font-family:'Super Mario 256';-inkscape-font-specification:'Super Mario 256, Normal';fill:#1a1a1a;fill-opacity:1;stroke-width:0.25;stroke-linecap:square;stroke-linejoin:bevel"
             d="m 21.08689,30.455683 1.626938,1.118521 0.129416,2.736215 -1.645427,1.589962 -2.042917,0.129416 v 1.3034 h -2.153845 l 0.342027,-6.877514 z m -1.552987,2.107625 -0.06471,1.118521 0.610102,0.0832 0.776493,-0.915153 -1.321887,-0.286563 z" /><path
             style="font-size:9.24397px;font-family:'Super Mario 256';-inkscape-font-specification:'Super Mario 256, Normal';fill:#1a1a1a;fill-opacity:1;stroke-width:0.25;stroke-linecap:square;stroke-linejoin:bevel"
             d="m 10.179004,30.464883 h 2.985803 l -0.13866,4.668205 1.155496,-0.831957 -0.342027,-3.337073 h 2.837899 v 4.492569 l -1.65467,1.867282 h -3.484977 l -1.358864,-1.663915 z"
             id="path17" /><path
             style="font-size:9.24397px;font-family:'Super Mario 256';-inkscape-font-specification:'Super Mario 256, Normal';fill:#1a1a1a;stroke-width:0.25;stroke-linecap:square;stroke-linejoin:bevel"
             d="m 9.846217,32.15653 -1.1924721,1.469791 -1.3958394,-0.896665 -0.3512709,0.44371 2.4958719,1.830306 -1.2109601,2.283261 H 5.2242321 l -2.0706493,-1.645427 0.8966651,-1.506767 1.7840862,1.007593 0.2680751,-0.415979 -2.6160435,-1.552987 2.477384,-2.773191 h 2.2277967 z"
             id="path18" /></g><g
           id="g13"><path
             id="path6"
             style="font-size:9.24397px;font-family:'Super Mario 256';-inkscape-font-specification:'Super Mario 256, Normal';fill:#01ee00;fill-opacity:1;stroke-width:0.25;stroke-linecap:square;stroke-linejoin:bevel"
             d="m 32.013259,30.464923 1.710135,1.247936 0.157147,2.153845 -0.961373,1.072301 1.710135,1.506767 -2.005942,0.868933 -2.098381,-1.79333 0.314295,1.784086 h -2.126113 l -0.53615,-6.544731 z m -1.488279,1.913502 -0.05546,1.312644 0.563882,0.07395 0.563883,-0.813469 -1.072301,-0.573126 z" /><path
             style="font-size:9.24397px;font-family:'Super Mario 256';-inkscape-font-specification:'Super Mario 256, Normal';fill:#01ffff;fill-opacity:1;stroke-width:0.25;stroke-linecap:square;stroke-linejoin:bevel"
             d="m 23.379391,30.409463 h 4.529545 l -0.379002,1.913502 -2.227797,0.342027 -0.02773,0.471442 1.968966,0.147904 -0.09244,1.469791 -1.756354,0.157148 0.157147,0.499174 2.135357,0.01849 0.785738,1.83955 h -5.093428 l -0.499174,-4.418618 0.499174,-2.440408 z"
             id="path5" /><path
             id="path3"
             style="font-size:9.24397px;font-family:'Super Mario 256';-inkscape-font-specification:'Super Mario 256, Normal';fill:#ffee2f;fill-opacity:1;stroke-width:0.25;stroke-linecap:square;stroke-linejoin:bevel"
             d="m 21.08689,30.455683 1.626938,1.118521 0.129416,2.736215 -1.645427,1.589962 -2.042917,0.129416 v 1.3034 h -2.153845 l 0.342027,-6.877514 z m -1.552987,2.107625 -0.06471,1.118521 0.610102,0.0832 0.776493,-0.915153 -1.321887,-0.286563 z" /><path
             style="font-size:9.24397px;font-family:'Super Mario 256';-inkscape-font-specification:'Super Mario 256, Normal';fill:#01fffd;fill-opacity:1;stroke-width:0.25;stroke-linecap:square;stroke-linejoin:bevel"
             d="m 10.179004,30.464883 h 2.985803 l -0.13866,4.668205 1.155496,-0.831957 -0.342027,-3.337073 h 2.837899 v 4.492569 l -1.65467,1.867282 h -3.484977 l -1.358864,-1.663915 z"
             id="path2" /><path
             style="font-size:9.24397px;font-family:'Super Mario 256';-inkscape-font-specification:'Super Mario 256, Normal';fill:#ff0000;stroke-width:0.25;stroke-linecap:square;stroke-linejoin:bevel"
             d="m 9.846217,32.15653 -1.1924721,1.469791 -1.3958394,-0.896665 -0.3512709,0.44371 2.4958719,1.830306 -1.2109601,2.283261 H 5.2242321 l -2.0706493,-1.645427 0.8966651,-1.506767 1.7840862,1.007593 0.2680751,-0.415979 -2.6160435,-1.552987 2.477384,-2.773191 h 2.2277967 z"
             id="text1" /></g><g
           id="g22"
           style="fill:#1a1a1a"
           transform="translate(1.0583333,1.0583333)"><path
             style="font-size:9.24397px;font-family:'Super Mario 256';-inkscape-font-specification:'Super Mario 256, Normal';fill:#1a1a1a;fill-opacity:1;stroke-width:7.27871;stroke-linecap:square;stroke-linejoin:bevel"
             d="m 54.707205,30.418701 2.551336,0.166392 -0.101683,2.449652 -1.663915,-0.776494 -1.451303,0.67481 -0.06471,1.571475 1.275668,0.868933 1.876526,-0.979861 0.62859,2.579068 -3.688344,0.323539 -1.802575,-1.580719 -0.53615,-1.987453 0.831957,-2.135358 2.144601,-1.173984 z"
             id="path19" /><path
             id="path20"
             style="font-size:9.24397px;font-family:'Super Mario 256';-inkscape-font-specification:'Super Mario 256, Normal';fill:#1a1a1a;fill-opacity:1;stroke-width:7.27871;stroke-linecap:square;stroke-linejoin:bevel"
             d="m 49.558317,30.446433 2.921094,6.369095 -2.791679,0.443711 -0.221855,-1.636183 -2.246285,-0.05546 -0.508418,1.74711 -2.689995,-0.480687 3.688344,-6.202703 1.848794,-0.18488 z m -1.377352,2.42192 -0.379003,0.942885 1.414328,0.03698 -0.323539,-0.952129 -0.711786,-0.02773 z" /><path
             style="font-size:9.24397px;font-family:'Super Mario 256';-inkscape-font-specification:'Super Mario 256, Normal';fill:#1a1a1a;fill-opacity:1;stroke-width:7.27871;stroke-linecap:square;stroke-linejoin:bevel"
             d="m 39.057165,30.464923 2.02443,-0.04622 4.058103,0.18488 v 1.811818 l -1.83955,0.175635 0.684053,3.207658 -0.952129,1.201716 -1.802574,0.295807 h -2.005941 l 0.06471,-2.033673 2.200064,-0.157148 -0.249587,-2.51436 -2.181577,-0.175635 v -1.950478 z"
             id="path21" /><path
             id="path22"
             style="fill:#1a1a1a;fill-opacity:1;stroke:none;stroke-width:2.37641;stroke-linecap:square;stroke-linejoin:bevel;stroke-opacity:1"
             d="m 61.680214,28.778923 3.460008,-2.296613 1.028751,1.994783 -3.70429,1.396831 z m 0.884364,1.741462 2.015185,2.505116 -0.573126,3.300097 -3.651368,0.952129 -2.91185,-2.569824 0.434466,-2.893362 2.172333,-1.377352 2.51436,0.0832 z m -1.968966,2.32948 -0.471442,1.053813 0.813469,0.545394 0.859689,-0.314295 -0.04622,-1.02608 z" /></g><g
           id="g19"><path
             style="font-size:9.24397px;font-family:'Super Mario 256';-inkscape-font-specification:'Super Mario 256, Normal';fill:#ffee2f;fill-opacity:1;stroke-width:7.27871;stroke-linecap:square;stroke-linejoin:bevel"
             d="m 54.707205,30.418701 2.551336,0.166392 -0.101683,2.449652 -1.663915,-0.776494 -1.451303,0.67481 -0.06471,1.571475 1.275668,0.868933 1.876526,-0.979861 0.62859,2.579068 -3.688344,0.323539 -1.802575,-1.580719 -0.53615,-1.987453 0.831957,-2.135358 2.144601,-1.173984 z"
             id="path11" /><path
             id="path9"
             style="font-size:9.24397px;font-family:'Super Mario 256';-inkscape-font-specification:'Super Mario 256, Normal';fill:#01fffd;fill-opacity:1;stroke-width:7.27871;stroke-linecap:square;stroke-linejoin:bevel"
             d="m 49.558317,30.446433 2.921094,6.369095 -2.791679,0.443711 -0.221855,-1.636183 -2.246285,-0.05546 -0.508418,1.74711 -2.689995,-0.480687 3.688344,-6.202703 1.848794,-0.18488 z m -1.377352,2.42192 -0.379003,0.942885 1.414328,0.03698 -0.323539,-0.952129 -0.711786,-0.02773 z" /><path
             style="font-size:9.24397px;font-family:'Super Mario 256';-inkscape-font-specification:'Super Mario 256, Normal';fill:#01ee00;fill-opacity:1;stroke-width:7.27871;stroke-linecap:square;stroke-linejoin:bevel"
             d="m 39.057165,30.464923 2.02443,-0.04622 4.058103,0.18488 v 1.811818 l -1.83955,0.175635 0.684053,3.207658 -0.952129,1.201716 -1.802574,0.295807 h -2.005941 l 0.06471,-2.033673 2.200064,-0.157148 -0.249587,-2.51436 -2.181577,-0.175635 v -1.950478 z"
             id="path8" /><path
             id="path13"
             style="fill:#ff0000;fill-opacity:1;stroke:none;stroke-width:2.37641;stroke-linecap:square;stroke-linejoin:bevel;stroke-opacity:1"
             d="m 61.680214,28.778923 3.460008,-2.296613 1.028751,1.994783 -3.70429,1.396831 z m 0.884364,1.741462 2.015185,2.505116 -0.573126,3.300097 -3.651368,0.952129 -2.91185,-2.569824 0.434466,-2.893362 2.172333,-1.377352 2.51436,0.0832 z m -1.968966,2.32948 -0.471442,1.053813 0.813469,0.545394 0.859689,-0.314295 -0.04622,-1.02608 z" /></g></g></g><path
       style="fill:#ff0000;stroke:#ff0000;stroke-width:2;stroke-linecap:round;stroke-linejoin:round;stroke-dasharray:none;stroke-opacity:1"
       d="M -17.574014,0.99993822 -3.4640842,8.0549022 -17.574014,15.109866 Z"
       id="path1"
       inkscape:export-filename="SELECT-MENU.png"
       inkscape:export-xdpi="96"
       inkscape:export-ydpi="96" /></g></svg>
